<svg xmlns="http://www.w3.org/2000/svg" viewBox="0 0 651.97 196.6"><defs><style>.cls-1{fill:#fff;}</style></defs><title>logo</title><g id="Layer_2" data-name="Layer 2"><g id="Layer_1-2" data-name="Layer 1"><path class="cls-1" d="M150.94,12.58s-49.52,135.8-54.47,146c-4,8.16-10.17,11.53-19.59,11.53-8.64,0-14-4-17.8-9.62C52.23,150.27,4.85,37.83.59,22.18-1.83,13.27,3.12,2.06,16.74.24c11.72-1.58,20.77,4.7,24.8,15.6C50,38.69,87.07,123.09,87.07,123.09S113.22,52.64,131.54,7A10,10,0,0,1,143.83.83c9,2.77,7.7,10.21,7.11,11.75M261.1,141.92c8.89,0,13-4,13-12.71L274,90.16c0-11.38-2.41-19.52-7.17-24.16-6-5.85-14.18-8.81-24.36-8.81S223.74,60.5,217.31,67l-1.91,1.94-.79-2.6c-1.85-6.15-5.93-9.15-12.48-9.15-8.89,0-13,4.07-13,12.81v59.21c0,8.67,4.13,12.71,13,12.71s13-4,13-12.71V88.81c.25-5.65,1.17-9.67,2.83-12.28,3.28-5.23,8.38-7.88,15.14-7.88,6.42,0,10.59,2.11,12.42,6.29C247.17,78.73,248,84,248,90.68l.09,38.53c0,8.67,4.14,12.71,13,12.71m-99.59,0c8.83,0,13-4.07,13-12.82v-59c0-8.74-4.12-12.81-13-12.81s-13,4.07-13,12.81v59c0,8.75,4.13,12.82,13,12.82m-.07-90c11.63,0,13-5.76,13-10.08s-1.34-10.08-13-10.08-13.06,5.76-13.06,10.08,1.35,10.08,13.06,10.08"/><path class="cls-1" d="M634.72,141.82a34.79,34.79,0,0,1-17-4.11c-4.83-2.71-15.35-12.63-15.35-26.4V66.87h-5.07c-4.51,0-6-.92-6.41-1.48a5.06,5.06,0,0,1-1.28-3.52c0-1.64.26-3.71,1.49-4.28,1-.5,2.9-1.06,7.07-1.06h4.2V34.74c0-8.79,4.13-12.89,13-12.89s13,4.1,13,12.89V56.53h7.13c5.48,0,8,.63,9.15,1.15.44.2,1.81.84,1.81,4.37,0,3-1.18,3.61-1.56,3.82a14.79,14.79,0,0,1-6.12,1H628.28v49.6c0,5.64.69,11.4,4.29,11.4,1.57,0,3.45-1.66,3.45-1.66a34.18,34.18,0,0,1,4.1-2.56,7.82,7.82,0,0,1,3.64-.84,7.6,7.6,0,0,1,5.8,2.5,8.28,8.28,0,0,1,2.41,6.1c0,3.38-1.66,5.86-5.06,7.57a26.94,26.94,0,0,1-12.19,2.84"/><path class="cls-1" d="M401.75,141.82a14.23,14.23,0,0,1-10.37-4.17,13.44,13.44,0,0,1-4.33-10.13V62.89L360.59,121s-3.86,7.11-7.78,8.89a14.81,14.81,0,0,1-6.27,1.43,15.35,15.35,0,0,1-5-.87,13.75,13.75,0,0,1-8.36-7.3l-32-60.55V136.1c0,4-1.8,5.72-6,5.72s-5.91-1.71-5.91-5.72l.09-101.35c-.06-.65-.09-1.11-.09-1.59,0-5.72,2.73-9.75,8.36-12.34a14.68,14.68,0,0,1,6.25-1.43,15.26,15.26,0,0,1,5,.88,13.83,13.83,0,0,1,8.37,7.3c.1.22,38.34,77.61,38.34,77.61l33.66-79.07c2.8-4.39,6.92-6.63,12.46-6.63a14.14,14.14,0,0,1,10.44,4.18,13.39,13.39,0,0,1,4.26,10v93.82a13.54,13.54,0,0,1-4.25,10.13,14.27,14.27,0,0,1-10.45,4.17"/><path class="cls-1" d="M481.39,94.87a31.93,31.93,0,0,0-18.59,5.43c-5.31,3.75-8,9.22-8,16.26a15.5,15.5,0,0,0,3.27,9.85,11.54,11.54,0,0,0,9.36,4.29c5.78,0,10.75-3.07,14.79-9.13a22.84,22.84,0,0,0,3.36-8.75,73.64,73.64,0,0,0,.61-10.76V94.87Zm-22.83,46.95a38.39,38.39,0,0,1-15.12-2.95,25.34,25.34,0,0,1-10.77-8.64,23.27,23.27,0,0,1-4.1-13.83,21.66,21.66,0,0,1,4.62-13.94,31.94,31.94,0,0,1,12.07-9.06,69,69,0,0,1,16-4.87,100.83,100.83,0,0,1,16.51-1.44h7.56v-1.6c0-5.86-1.52-10.68-4.5-14.33s-7.57-5.66-13.4-5.66a13.55,13.55,0,0,0-6.74,1.59,38.7,38.7,0,0,0-5.87,4.49,31.92,31.92,0,0,1-5.39,4,10.88,10.88,0,0,1-5.26,1.16,12.49,12.49,0,0,1-6.72-1.8,5.49,5.49,0,0,1-2.51-5c0-3.07,1.87-5.46,5.71-7.3a48.93,48.93,0,0,1,14.61-4.33A99,99,0,0,1,469.5,57c9.45,0,17.6,1.43,24.26,4.25l.61.26c1.36.6,2.57,1.21,3.61,1.8,4.92,2.8,8.41,6.29,10.38,10.38s3,9.38,3,15.62l.25,37.09a12.27,12.27,0,0,1-3.74,9.08,12,12,0,0,1-8.94,3.72c-5.61,0-9.4-2.49-11.61-7.61l-1.84-4.57-1.69,2.62c-5.25,8.17-13.51,12.14-25.26,12.14"/><path class="cls-1" d="M539.32,141.82a12,12,0,0,1-8.94-3.72,12.45,12.45,0,0,1-3.67-9.1V69.77a12.06,12.06,0,0,1,3.66-9,11.94,11.94,0,0,1,9-3.75c7.39,0,11.34,3.44,12.44,10.82l.57,3.88,2.33-3.16a45.52,45.52,0,0,1,5.9-6.64,18.11,18.11,0,0,1,12-4.9,11.28,11.28,0,0,1,8.26,3.15A10.72,10.72,0,0,1,584,68.31a13.13,13.13,0,0,1-2.23,7.44,6.14,6.14,0,0,1-5.37,3,20.74,20.74,0,0,1-5.65-1,22.45,22.45,0,0,0-6.07-1.19c-3.79,0-7,2.47-9.45,7.33-1.89,3.4-3,8.22-3.35,14.71V129a12.45,12.45,0,0,1-3.66,9.1,12,12,0,0,1-8.93,3.72"/><path class="cls-1" d="M166.85,184.93l-1.37-3.61H153.8L152.43,185a12.93,12.93,0,0,1-1.37,2.91,2.19,2.19,0,0,1-1.86.75,2.75,2.75,0,0,1-1.94-.8,2.49,2.49,0,0,1-.84-1.83,4.06,4.06,0,0,1,.19-1.21c.14-.42.35-1,.65-1.74l7.35-18.65.75-1.93a10.13,10.13,0,0,1,.94-1.87,3.9,3.9,0,0,1,1.31-1.21,4.67,4.67,0,0,1,4,0,3.86,3.86,0,0,1,1.31,1.19,7.49,7.49,0,0,1,.84,1.55c.23.56.52,1.3.88,2.23l7.5,18.53a9.26,9.26,0,0,1,.88,3.08,2.58,2.58,0,0,1-.83,1.83,2.77,2.77,0,0,1-2,.83,2.47,2.47,0,0,1-1.17-.25,2.34,2.34,0,0,1-.83-.66,6,6,0,0,1-.71-1.29C167.25,185.89,167,185.37,166.85,184.93Zm-11.52-8h8.58l-4.33-11.86Z"/><path class="cls-1" d="M181.82,169.88v.65a9.39,9.39,0,0,1,3.08-2.73,8.24,8.24,0,0,1,3.85-.87,7.61,7.61,0,0,1,3.78.92,5.85,5.85,0,0,1,2.49,2.6,6.37,6.37,0,0,1,.69,2.12,22.77,22.77,0,0,1,.15,2.9v9.95a3.55,3.55,0,0,1-.73,2.43,2.44,2.44,0,0,1-1.91.82,2.47,2.47,0,0,1-1.94-.84,3.51,3.51,0,0,1-.74-2.41V176.5a8.87,8.87,0,0,0-.74-4,3,3,0,0,0-2.93-1.4,4.31,4.31,0,0,0-2.6.85,4.91,4.91,0,0,0-1.73,2.34,16.88,16.88,0,0,0-.39,4.47v6.7a3.51,3.51,0,0,1-.75,2.44,2.56,2.56,0,0,1-2,.81,2.42,2.42,0,0,1-1.9-.84,3.51,3.51,0,0,1-.75-2.41V170a3.32,3.32,0,0,1,.67-2.28,2.3,2.3,0,0,1,1.82-.75,2.48,2.48,0,0,1,1.27.33,2.28,2.28,0,0,1,.91,1A3.46,3.46,0,0,1,181.82,169.88Z"/><path class="cls-1" d="M211.52,167.4h.58v-3.22c0-.86,0-1.54.07-2a3.21,3.21,0,0,1,.38-1.27,2.43,2.43,0,0,1,.91-.89,2.51,2.51,0,0,1,1.31-.34,2.63,2.63,0,0,1,1.84.76,2.26,2.26,0,0,1,.69,1.25,11,11,0,0,1,.15,2.08v3.65h2a2.47,2.47,0,0,1,1.73.53,1.78,1.78,0,0,1,.6,1.39,1.53,1.53,0,0,1-.85,1.5,5.5,5.5,0,0,1-2.44.43h-1v9.84a15.7,15.7,0,0,0,.09,1.93,2,2,0,0,0,.47,1.1,1.6,1.6,0,0,0,1.24.42,6.83,6.83,0,0,0,1.28-.17,6.67,6.67,0,0,1,1.25-.17,1.65,1.65,0,0,1,1.17.52,1.79,1.79,0,0,1,.52,1.29,2.13,2.13,0,0,1-1.41,2,9.54,9.54,0,0,1-4.06.69,7,7,0,0,1-3.8-.84,3.88,3.88,0,0,1-1.69-2.33,15.72,15.72,0,0,1-.41-4V171.25h-.7a2.56,2.56,0,0,1-1.76-.54,1.78,1.78,0,0,1-.61-1.39,1.74,1.74,0,0,1,.63-1.39A2.83,2.83,0,0,1,211.52,167.4Z"/><path class="cls-1" d="M238.94,185.65a16.6,16.6,0,0,1-3.75,2.27,10.53,10.53,0,0,1-4.06.75,7.73,7.73,0,0,1-3.62-.81,6,6,0,0,1-2.4-2.21,5.7,5.7,0,0,1-.84-3,5.41,5.41,0,0,1,1.39-3.75,7,7,0,0,1,3.82-2.07c.34-.08,1.18-.26,2.53-.53s2.49-.53,3.45-.76,2-.5,3.13-.83a5.62,5.62,0,0,0-.85-3.1c-.51-.66-1.55-1-3.13-1a6.45,6.45,0,0,0-3.06.57,4.94,4.94,0,0,0-1.77,1.7,15.82,15.82,0,0,1-1,1.5,1.69,1.69,0,0,1-1.3.36,2.27,2.27,0,0,1-1.56-.58,1.88,1.88,0,0,1-.65-1.48,4.5,4.5,0,0,1,1-2.74,7,7,0,0,1,3.11-2.19,13.94,13.94,0,0,1,5.27-.86,14.87,14.87,0,0,1,5.55.83,5.17,5.17,0,0,1,2.85,2.63,11.65,11.65,0,0,1,.83,4.78c0,1.26,0,2.32,0,3.2s0,1.84,0,2.92a10.86,10.86,0,0,0,.5,3.14,10.06,10.06,0,0,1,.5,2.11A2,2,0,0,1,244,188a2.63,2.63,0,0,1-1.76.68,2.36,2.36,0,0,1-1.62-.77A11.46,11.46,0,0,1,238.94,185.65Zm-3.17-22.39-2-2.29-2,2.29a9,9,0,0,1-1.12,1.2,2,2,0,0,1-1.09.21h-1.57c-.54,0-.8-.09-.8-.27a2.58,2.58,0,0,1,.6-1l2.18-2.61.62-.77a4.11,4.11,0,0,1,.62-.63,2.24,2.24,0,0,1,.78-.29,5.75,5.75,0,0,1,1.17-.11h1.1a3.61,3.61,0,0,1,1.77.31,8,8,0,0,1,1.42,1.49l2.25,2.65a3.09,3.09,0,0,1,.57.88c0,.22-.29.33-.88.33H238a2.19,2.19,0,0,1-.93-.16,2.4,2.4,0,0,1-.66-.52Zm2.82,14.65a25.9,25.9,0,0,1-3.42.92c-1.5.32-2.53.55-3.1.7a4.28,4.28,0,0,0-1.65.88,2.27,2.27,0,0,0-.78,1.83,2.7,2.7,0,0,0,.92,2.07,3.38,3.38,0,0,0,2.41.85,6.35,6.35,0,0,0,2.93-.69,4.64,4.64,0,0,0,2-1.79,8.13,8.13,0,0,0,.73-4Z"/><path class="cls-1" d="M267.05,178.19v7.11a3.66,3.66,0,0,1-.76,2.53,2.6,2.6,0,0,1-2,.84,2.52,2.52,0,0,1-2-.84,3.71,3.71,0,0,1-.75-2.53v-8.52a27.69,27.69,0,0,0-.14-3.14,3.44,3.44,0,0,0-.74-1.83,2.42,2.42,0,0,0-1.92-.71c-1.75,0-2.91.6-3.46,1.8a12.64,12.64,0,0,0-.83,5.17v7.23a3.72,3.72,0,0,1-.76,2.52,2.74,2.74,0,0,1-4,0,3.62,3.62,0,0,1-.78-2.52V170a3.32,3.32,0,0,1,.7-2.29,2.32,2.32,0,0,1,1.83-.78,2.48,2.48,0,0,1,1.83.73,2.75,2.75,0,0,1,.74,2v.51a9.16,9.16,0,0,1,3-2.45,7.92,7.92,0,0,1,3.53-.79,7,7,0,0,1,3.47.81,6.28,6.28,0,0,1,2.39,2.43,9.17,9.17,0,0,1,2.9-2.44,7.37,7.37,0,0,1,3.42-.8,7.71,7.71,0,0,1,3.78.87,5.5,5.5,0,0,1,2.38,2.46,11.49,11.49,0,0,1,.68,4.57V185.3a3.66,3.66,0,0,1-.76,2.53,2.61,2.61,0,0,1-2,.84,2.57,2.57,0,0,1-2-.85,3.62,3.62,0,0,1-.77-2.52v-9a20.12,20.12,0,0,0-.15-2.76,3.18,3.18,0,0,0-.79-1.75,2.54,2.54,0,0,0-2-.7,3.63,3.63,0,0,0-2,.62,4.26,4.26,0,0,0-1.48,1.69A13.39,13.39,0,0,0,267.05,178.19Z"/><path class="cls-1" d="M312.58,178.19v7.11a3.71,3.71,0,0,1-.76,2.53,2.61,2.61,0,0,1-2,.84,2.52,2.52,0,0,1-2-.84,3.71,3.71,0,0,1-.76-2.53v-8.52a28.13,28.13,0,0,0-.13-3.14,3.37,3.37,0,0,0-.75-1.83,2.39,2.39,0,0,0-1.92-.71q-2.62,0-3.45,1.8a12.62,12.62,0,0,0-.84,5.17v7.23a3.72,3.72,0,0,1-.75,2.52,2.52,2.52,0,0,1-2,.85,2.57,2.57,0,0,1-2-.85,3.67,3.67,0,0,1-.77-2.52V170a3.37,3.37,0,0,1,.69-2.29,2.36,2.36,0,0,1,1.84-.78,2.48,2.48,0,0,1,1.83.73,2.75,2.75,0,0,1,.73,2v.51a9.29,9.29,0,0,1,3-2.45,7.89,7.89,0,0,1,3.53-.79,7,7,0,0,1,3.46.81,6.14,6.14,0,0,1,2.39,2.43,9.28,9.28,0,0,1,2.9-2.44,7.41,7.41,0,0,1,3.43-.8,7.76,7.76,0,0,1,3.78.87,5.42,5.42,0,0,1,2.37,2.46,11.28,11.28,0,0,1,.69,4.57V185.3a3.66,3.66,0,0,1-.77,2.53,2.59,2.59,0,0,1-2,.84,2.55,2.55,0,0,1-2-.85,3.62,3.62,0,0,1-.78-2.52v-9a22.17,22.17,0,0,0-.14-2.76,3.19,3.19,0,0,0-.8-1.75,2.52,2.52,0,0,0-2-.7,3.62,3.62,0,0,0-2,.62,4.19,4.19,0,0,0-1.48,1.69A13.39,13.39,0,0,0,312.58,178.19Z"/><path class="cls-1" d="M343.65,185.65V185a11.42,11.42,0,0,1-2,2,7.35,7.35,0,0,1-2.31,1.23,9.32,9.32,0,0,1-2.86.4,7.5,7.5,0,0,1-3.48-.8,5.94,5.94,0,0,1-2.38-2.22,9.81,9.81,0,0,1-1-4.89v-10.6a3.43,3.43,0,0,1,.73-2.4,2.46,2.46,0,0,1,1.92-.79,2.53,2.53,0,0,1,2,.8,3.42,3.42,0,0,1,.74,2.39v8.56a13.67,13.67,0,0,0,.31,3.12,3.73,3.73,0,0,0,1.13,2,3.2,3.2,0,0,0,2.2.72,4.46,4.46,0,0,0,2.55-.81,4.59,4.59,0,0,0,1.74-2.09,16.45,16.45,0,0,0,.46-5v-6.5a3.37,3.37,0,0,1,.74-2.39,2.51,2.51,0,0,1,1.94-.8,2.46,2.46,0,0,1,1.92.79,3.48,3.48,0,0,1,.72,2.4v15.49a3.35,3.35,0,0,1-.69,2.3,2.49,2.49,0,0,1-3.61,0A3.24,3.24,0,0,1,343.65,185.65Z"/><path class="cls-1" d="M367.51,185.65a16.6,16.6,0,0,1-3.75,2.27,10.58,10.58,0,0,1-4.07.75,7.72,7.72,0,0,1-3.61-.81,6,6,0,0,1-2.4-2.21,5.7,5.7,0,0,1-.84-3,5.41,5.41,0,0,1,1.39-3.75,6.91,6.91,0,0,1,3.82-2.07c.34-.08,1.18-.26,2.52-.53s2.5-.53,3.46-.76,2-.5,3.13-.83a5.54,5.54,0,0,0-.86-3.1q-.75-1-3.12-1a6.52,6.52,0,0,0-3.07.57,5,5,0,0,0-1.76,1.7,15.82,15.82,0,0,1-1,1.5,1.69,1.69,0,0,1-1.3.36,2.27,2.27,0,0,1-1.56-.58,1.88,1.88,0,0,1-.65-1.48,4.5,4.5,0,0,1,1-2.74,7,7,0,0,1,3.11-2.19,13.94,13.94,0,0,1,5.27-.86,14.78,14.78,0,0,1,5.54.83,5.1,5.1,0,0,1,2.85,2.63,11.48,11.48,0,0,1,.84,4.78c0,1.26,0,2.32,0,3.2s0,1.84,0,2.92a10.53,10.53,0,0,0,.5,3.14,10.06,10.06,0,0,1,.5,2.11,2,2,0,0,1-.78,1.49,2.59,2.59,0,0,1-1.75.68,2.4,2.4,0,0,1-1.63-.77A11.87,11.87,0,0,1,367.51,185.65Zm-.35-7.74a26.81,26.81,0,0,1-3.42.92c-1.5.32-2.53.55-3.11.7a4.32,4.32,0,0,0-1.64.88,2.28,2.28,0,0,0-.79,1.83,2.73,2.73,0,0,0,.92,2.07,3.41,3.41,0,0,0,2.41.85,6.3,6.3,0,0,0,2.93-.69,4.67,4.67,0,0,0,2-1.79,8.24,8.24,0,0,0,.73-4Z"/><path class="cls-1" d="M405.08,181.68a6.18,6.18,0,0,1-4.26,6.18,14.29,14.29,0,0,1-5.12.81,12.47,12.47,0,0,1-4.94-.88,7.11,7.11,0,0,1-3-2.21,4.38,4.38,0,0,1-1-2.65,2.08,2.08,0,0,1,.62-1.51,2.16,2.16,0,0,1,1.59-.63,1.82,1.82,0,0,1,1.29.42,4.41,4.41,0,0,1,.86,1.15,5.87,5.87,0,0,0,2,2.14,6,6,0,0,0,3.13.7,4.54,4.54,0,0,0,2.63-.71,2,2,0,0,0,1-1.64,2.23,2.23,0,0,0-1.07-2.06,13.15,13.15,0,0,0-3.51-1.23,30.07,30.07,0,0,1-4.5-1.44,7.32,7.32,0,0,1-2.77-2,4.55,4.55,0,0,1-1-3,5.36,5.36,0,0,1,1-3,6.6,6.6,0,0,1,2.83-2.28,10.82,10.82,0,0,1,4.52-.85,14.7,14.7,0,0,1,3.73.43,9.25,9.25,0,0,1,2.76,1.15,5.83,5.83,0,0,1,1.69,1.61,3.17,3.17,0,0,1,.57,1.72,2,2,0,0,1-.61,1.51,2.46,2.46,0,0,1-1.76.59,2.19,2.19,0,0,1-1.4-.47,10.47,10.47,0,0,1-1.32-1.41,4.9,4.9,0,0,0-1.43-1.26,4.54,4.54,0,0,0-2.23-.47,4.38,4.38,0,0,0-2.41.62,1.79,1.79,0,0,0-1,1.54,1.66,1.66,0,0,0,.7,1.38,5.8,5.8,0,0,0,1.9.89c.8.24,1.9.52,3.29.86a17.9,17.9,0,0,1,4.07,1.45,6.78,6.78,0,0,1,2.39,2A4.42,4.42,0,0,1,405.08,181.68Z"/><path class="cls-1" d="M423.12,185.65a16.6,16.6,0,0,1-3.75,2.27,10.53,10.53,0,0,1-4.06.75,7.76,7.76,0,0,1-3.62-.81,6.11,6.11,0,0,1-2.4-2.21,5.7,5.7,0,0,1-.84-3,5.46,5.46,0,0,1,1.39-3.75,7,7,0,0,1,3.82-2.07c.34-.08,1.18-.26,2.53-.53s2.5-.53,3.46-.76,2-.5,3.12-.83a5.54,5.54,0,0,0-.85-3.1q-.75-1-3.12-1a6.52,6.52,0,0,0-3.07.57,4.91,4.91,0,0,0-1.76,1.7,18,18,0,0,1-1,1.5,1.71,1.71,0,0,1-1.3.36,2.25,2.25,0,0,1-1.56-.58,1.86,1.86,0,0,1-.66-1.48,4.5,4.5,0,0,1,1-2.74,7.13,7.13,0,0,1,3.12-2.19,13.9,13.9,0,0,1,5.27-.86,14.82,14.82,0,0,1,5.54.83,5.17,5.17,0,0,1,2.85,2.63,11.65,11.65,0,0,1,.83,4.78c0,1.26,0,2.32,0,3.2s0,1.84,0,2.92a10.86,10.86,0,0,0,.5,3.14,9.42,9.42,0,0,1,.5,2.11,2,2,0,0,1-.77,1.49,2.61,2.61,0,0,1-1.75.68,2.38,2.38,0,0,1-1.63-.77A11.86,11.86,0,0,1,423.12,185.65Zm-.35-7.74a25.9,25.9,0,0,1-3.42.92c-1.49.32-2.53.55-3.1.7a4.35,4.35,0,0,0-1.65.88,2.27,2.27,0,0,0-.78,1.83,2.73,2.73,0,0,0,.92,2.07,3.4,3.4,0,0,0,2.41.85,6.32,6.32,0,0,0,2.93-.69,4.73,4.73,0,0,0,2-1.79,8.26,8.26,0,0,0,.72-4Z"/><path class="cls-1" d="M451.24,178.19v7.11a3.66,3.66,0,0,1-.77,2.53,2.6,2.6,0,0,1-2,.84,2.5,2.5,0,0,1-2-.84,3.66,3.66,0,0,1-.76-2.53v-8.52a25.51,25.51,0,0,0-.14-3.14,3.44,3.44,0,0,0-.74-1.83,2.42,2.42,0,0,0-1.92-.71c-1.75,0-2.9.6-3.46,1.8a12.81,12.81,0,0,0-.83,5.17v7.23a3.72,3.72,0,0,1-.75,2.52,2.75,2.75,0,0,1-4,0,3.62,3.62,0,0,1-.78-2.52V170a3.37,3.37,0,0,1,.7-2.29,2.32,2.32,0,0,1,1.83-.78,2.48,2.48,0,0,1,1.83.73,2.75,2.75,0,0,1,.74,2v.51a9.29,9.29,0,0,1,3-2.45,7.85,7.85,0,0,1,3.52-.79,7,7,0,0,1,3.47.81,6.21,6.21,0,0,1,2.39,2.43,9.28,9.28,0,0,1,2.9-2.44,7.38,7.38,0,0,1,3.43-.8,7.76,7.76,0,0,1,3.78.87,5.42,5.42,0,0,1,2.37,2.46,11.31,11.31,0,0,1,.68,4.57V185.3a3.66,3.66,0,0,1-.76,2.53,2.6,2.6,0,0,1-2,.84,2.57,2.57,0,0,1-2-.85,3.67,3.67,0,0,1-.77-2.52v-9a20.12,20.12,0,0,0-.15-2.76,3.11,3.11,0,0,0-.79-1.75,2.52,2.52,0,0,0-2-.7,3.68,3.68,0,0,0-2,.62,4.34,4.34,0,0,0-1.48,1.69A13.45,13.45,0,0,0,451.24,178.19Z"/><path class="cls-1" d="M496.76,178.19v7.11a3.66,3.66,0,0,1-.76,2.53,2.6,2.6,0,0,1-2,.84,2.52,2.52,0,0,1-2-.84,3.71,3.71,0,0,1-.75-2.53v-8.52a27.69,27.69,0,0,0-.14-3.14,3.44,3.44,0,0,0-.74-1.83,2.42,2.42,0,0,0-1.92-.71c-1.75,0-2.91.6-3.46,1.8a12.64,12.64,0,0,0-.83,5.17v7.23a3.67,3.67,0,0,1-.76,2.52,2.74,2.74,0,0,1-4,0,3.62,3.62,0,0,1-.78-2.52V170a3.32,3.32,0,0,1,.7-2.29,2.32,2.32,0,0,1,1.83-.78,2.48,2.48,0,0,1,1.83.73,2.75,2.75,0,0,1,.74,2v.51a9.26,9.26,0,0,1,3-2.45,7.92,7.92,0,0,1,3.53-.79,7,7,0,0,1,3.47.81,6.28,6.28,0,0,1,2.39,2.43,9.17,9.17,0,0,1,2.9-2.44,7.37,7.37,0,0,1,3.42-.8,7.71,7.71,0,0,1,3.78.87,5.5,5.5,0,0,1,2.38,2.46,11.49,11.49,0,0,1,.68,4.57V185.3a3.66,3.66,0,0,1-.76,2.53,2.61,2.61,0,0,1-2,.84,2.57,2.57,0,0,1-2-.85,3.62,3.62,0,0,1-.77-2.52v-9a20.12,20.12,0,0,0-.15-2.76,3.18,3.18,0,0,0-.79-1.75,2.54,2.54,0,0,0-2-.7,3.63,3.63,0,0,0-2,.62,4.26,4.26,0,0,0-1.48,1.69A13.39,13.39,0,0,0,496.76,178.19Z"/><path class="cls-1" d="M534.49,177.8a12.83,12.83,0,0,1-.74,4.41,9.76,9.76,0,0,1-2.16,3.46,9.5,9.5,0,0,1-3.37,2.23,12,12,0,0,1-4.4.77,11.61,11.61,0,0,1-4.37-.78,9.72,9.72,0,0,1-5.52-5.69,12.66,12.66,0,0,1-.73-4.4,12.94,12.94,0,0,1,.74-4.45,9.81,9.81,0,0,1,2.14-3.45,9.39,9.39,0,0,1,3.37-2.2,12.79,12.79,0,0,1,8.77,0,9.63,9.63,0,0,1,3.39,2.23,9.73,9.73,0,0,1,2.15,3.45A12.67,12.67,0,0,1,534.49,177.8Zm-5.37,0a8.06,8.06,0,0,0-1.43-5.1,4.69,4.69,0,0,0-3.87-1.82,4.76,4.76,0,0,0-2.77.82,5.19,5.19,0,0,0-1.84,2.39,9.84,9.84,0,0,0-.64,3.71,9.74,9.74,0,0,0,.63,3.66,5.24,5.24,0,0,0,1.82,2.4,4.72,4.72,0,0,0,2.8.83,4.67,4.67,0,0,0,3.87-1.83A8,8,0,0,0,529.12,177.8Z"/><path class="cls-1" d="M541.41,164.44a2.8,2.8,0,0,1-1.91-.69,2.64,2.64,0,0,1,0-3.81,2.72,2.72,0,0,1,1.89-.73,2.83,2.83,0,0,1,1.84.66,2.4,2.4,0,0,1,.8,1.94,2.45,2.45,0,0,1-.78,1.93A2.68,2.68,0,0,1,541.41,164.44Zm2.64,5.52v15.46a3.45,3.45,0,0,1-.76,2.43,2.53,2.53,0,0,1-1.94.82,2.42,2.42,0,0,1-1.91-.84,3.56,3.56,0,0,1-.74-2.41v-15.3a3.42,3.42,0,0,1,.74-2.39,2.46,2.46,0,0,1,1.91-.8,2.55,2.55,0,0,1,1.94.8A3.09,3.09,0,0,1,544.05,170Z"/><path class="cls-1" d="M564.47,169.88v.65a9.29,9.29,0,0,1,3.08-2.73,8.24,8.24,0,0,1,3.85-.87,7.61,7.61,0,0,1,3.78.92,5.85,5.85,0,0,1,2.49,2.6,6.13,6.13,0,0,1,.68,2.12,20.83,20.83,0,0,1,.16,2.9v9.95a3.55,3.55,0,0,1-.73,2.43,2.65,2.65,0,0,1-3.85,0,3.51,3.51,0,0,1-.75-2.41V176.5a8.88,8.88,0,0,0-.73-4,3,3,0,0,0-2.93-1.4,4.36,4.36,0,0,0-2.61.85,5,5,0,0,0-1.72,2.34,16.88,16.88,0,0,0-.39,4.47v6.7a3.46,3.46,0,0,1-.76,2.44,2.54,2.54,0,0,1-1.95.81,2.43,2.43,0,0,1-1.9-.84,3.56,3.56,0,0,1-.74-2.41V170a3.32,3.32,0,0,1,.67-2.28,2.3,2.3,0,0,1,1.82-.75,2.48,2.48,0,0,1,1.27.33,2.34,2.34,0,0,1,.91,1A3.46,3.46,0,0,1,564.47,169.88Z"/><path class="cls-1" d="M603.51,170.84v15.54a16.23,16.23,0,0,1-.57,4.58,7.45,7.45,0,0,1-1.82,3.18,7.78,7.78,0,0,1-3.28,1.86,18.14,18.14,0,0,1-5.05.6,14.54,14.54,0,0,1-4.93-.77,8.5,8.5,0,0,1-3.35-2,3.6,3.6,0,0,1-1.18-2.52,2,2,0,0,1,.67-1.59,2.28,2.28,0,0,1,1.6-.62,2.64,2.64,0,0,1,2.06,1c.29.35.58.71.89,1.07a5.52,5.52,0,0,0,1,.92,4.2,4.2,0,0,0,1.34.57,8.06,8.06,0,0,0,1.8.18,7.26,7.26,0,0,0,3.23-.58,3.25,3.25,0,0,0,1.6-1.61,6.4,6.4,0,0,0,.54-2.23q.07-1.19.12-3.81a8.73,8.73,0,0,1-2.85,2.63,7.8,7.8,0,0,1-3.85.9,8.14,8.14,0,0,1-4.69-1.37,8.84,8.84,0,0,1-3.09-3.84,14.14,14.14,0,0,1-1.08-5.7,13.43,13.43,0,0,1,.66-4.35,9.19,9.19,0,0,1,1.87-3.27,8,8,0,0,1,2.8-2,8.83,8.83,0,0,1,3.49-.68,8.42,8.42,0,0,1,3.94.88,9.52,9.52,0,0,1,3.09,2.73v-.73a3.1,3.1,0,0,1,.69-2.15,2.25,2.25,0,0,1,1.76-.76,2.08,2.08,0,0,1,2.06,1A6.66,6.66,0,0,1,603.51,170.84ZM588,177.62a7.44,7.44,0,0,0,1.42,4.92,4.61,4.61,0,0,0,3.68,1.66,4.75,4.75,0,0,0,2.51-.71,5.24,5.24,0,0,0,1.93-2.16,7.47,7.47,0,0,0,.75-3.49,8.06,8.06,0,0,0-1.44-5.1,4.62,4.62,0,0,0-3.79-1.82,4.46,4.46,0,0,0-3.68,1.74A7.85,7.85,0,0,0,588,177.62Z"/><path class="cls-1" d="M622.43,185.65a16.6,16.6,0,0,1-3.75,2.27,10.53,10.53,0,0,1-4.06.75,7.73,7.73,0,0,1-3.62-.81,6,6,0,0,1-2.4-2.21,5.7,5.7,0,0,1-.84-3,5.41,5.41,0,0,1,1.39-3.75,7,7,0,0,1,3.82-2.07c.34-.08,1.18-.26,2.53-.53s2.49-.53,3.45-.76,2-.5,3.13-.83a5.62,5.62,0,0,0-.85-3.1c-.51-.66-1.55-1-3.13-1a6.45,6.45,0,0,0-3.06.57,4.94,4.94,0,0,0-1.77,1.7c-.49.76-.83,1.26-1,1.5a1.74,1.74,0,0,1-1.31.36,2.27,2.27,0,0,1-1.56-.58,1.88,1.88,0,0,1-.65-1.48,4.5,4.5,0,0,1,1-2.74,7,7,0,0,1,3.11-2.19,13.94,13.94,0,0,1,5.27-.86,14.87,14.87,0,0,1,5.55.83,5.17,5.17,0,0,1,2.85,2.63,11.65,11.65,0,0,1,.83,4.78c0,1.26,0,2.32,0,3.2s0,1.84,0,2.92a10.86,10.86,0,0,0,.5,3.14,10.06,10.06,0,0,1,.5,2.11,2,2,0,0,1-.77,1.49,2.63,2.63,0,0,1-1.76.68,2.36,2.36,0,0,1-1.62-.77A11.46,11.46,0,0,1,622.43,185.65Zm-3.52-24.19.88,1.65a2.92,2.92,0,0,1,.53,1.15c0,.33-.29.49-.85.49a5.25,5.25,0,0,1-2.41-.57,19.31,19.31,0,0,1-2.7-2.33,11.36,11.36,0,0,1-2.15-2.31c0-.2.33-.29,1-.29h2.65a3,3,0,0,1,1.74.41A5.21,5.21,0,0,1,618.91,161.46Zm3.17,16.45a25.9,25.9,0,0,1-3.42.92c-1.5.32-2.53.55-3.1.7a4.28,4.28,0,0,0-1.65.88,2.27,2.27,0,0,0-.78,1.83,2.7,2.7,0,0,0,.92,2.07,3.38,3.38,0,0,0,2.41.85,6.35,6.35,0,0,0,2.93-.69,4.64,4.64,0,0,0,2-1.79,8.13,8.13,0,0,0,.73-4Z"/><path class="cls-1" d="M637.69,189.34l.49-1.2-6.58-16.57a6.16,6.16,0,0,1-.61-2.08,2.45,2.45,0,0,1,.35-1.27,2.65,2.65,0,0,1,1-.94,2.53,2.53,0,0,1,1.29-.35,2.09,2.09,0,0,1,1.74.73,6.78,6.78,0,0,1,1,2.11l4.52,13.16,4.29-12.24a19.23,19.23,0,0,1,.93-2.33,2.61,2.61,0,0,1,.87-1.14,2.36,2.36,0,0,1,1.3-.29,2.29,2.29,0,0,1,1.17.32,2.25,2.25,0,0,1,.86.87,2.39,2.39,0,0,1,.3,1.16c0,.24-.14.6-.25,1.05s-.26.92-.43,1.39L643,190a21.36,21.36,0,0,1-1.76,3.78,5.85,5.85,0,0,1-2.28,2.11,8.43,8.43,0,0,1-3.83.73,9.3,9.3,0,0,1-3.53-.51,1.86,1.86,0,0,1-1.17-1.86,1.82,1.82,0,0,1,.55-1.42,2.46,2.46,0,0,1,1.66-.5,2.94,2.94,0,0,1,.84.12,3.9,3.9,0,0,0,.88.12,3.06,3.06,0,0,0,1.45-.28,2.53,2.53,0,0,0,1-1A14.09,14.09,0,0,0,637.69,189.34Z"/><path class="cls-1" d="M525.3,164.09l-1.55-1.81-1.54,1.81a7.41,7.41,0,0,1-.88.94,1.54,1.54,0,0,1-.87.17h-1.24q-.63,0-.63-.21a2.08,2.08,0,0,1,.48-.77l1.71-2.06c.15-.17.31-.38.5-.61a2.23,2.23,0,0,1,.49-.49,1.68,1.68,0,0,1,.61-.24,4.92,4.92,0,0,1,.92-.08h.87a2.71,2.71,0,0,1,1.4.25,6,6,0,0,1,1.12,1.17l1.78,2.09a2.63,2.63,0,0,1,.44.69c0,.18-.23.26-.69.26H527a1.65,1.65,0,0,1-.73-.13,1.59,1.59,0,0,1-.52-.41C525.63,164.48,525.46,164.29,525.3,164.09Z"/><path class="cls-1" d="M521.29,157.57a3.63,3.63,0,0,0-2.6,1.3v-2.46a3.57,3.57,0,0,1,2.87-1.3,4.6,4.6,0,0,1,1.25.17q.6.18,1.23.42l1.23.48a3.14,3.14,0,0,0,.93.22,2.81,2.81,0,0,0,1.29-.36,4.7,4.7,0,0,0,1.32-1v2.57a4.56,4.56,0,0,1-.75.59,5.35,5.35,0,0,1-.95.49,2.58,2.58,0,0,1-.91.18,4.65,4.65,0,0,1-1.27-.16,11.79,11.79,0,0,1-1.34-.48q-.74-.32-1.23-.48A3.29,3.29,0,0,0,521.29,157.57Z"/><path class="cls-1" d="M416.07,159.46a3.43,3.43,0,0,0,3.39,3.25,3.35,3.35,0,0,0,3.39-3.25h2.44a5.5,5.5,0,0,1-5.83,5.84c-4.15,0-5.84-2.92-5.84-5.84Z"/><path class="cls-1" d="M423.46,154.48a30.18,30.18,0,0,1-4.23,5.27l-1.47-.26a38.55,38.55,0,0,0,3.33-5.5Z"/></g></g></svg>